<svg xmlns="http://www.w3.org/2000/svg" viewBox="0 0 934.36 355.44"><defs><style>.cls-1{font-size:157.99px;font-family:Poppins-SemiBold, Poppins;font-weight:600;}.cls-2{fill:#0d113a;}</style></defs><g id="Layer_2" data-name="Layer 2"><g id="Layer_1-2" data-name="Layer 1"><text class="cls-1" transform="translate(387.1 134.37)">One<tspan x="0" y="127.39">Dream</tspan></text><path class="cls-2" d="M311.32,56.74A108.91,108.91,0,0,0,215.66,0h-57a17.33,17.33,0,0,0-17.33,17.33V39.38A17.37,17.37,0,0,1,124,56.74H109a109,109,0,1,0,0,218h53.56a17.33,17.33,0,0,0,17.33-17.34v-22A17.36,17.36,0,0,1,197.23,218h18.43A109,109,0,0,0,311.32,56.74Zm-93.84,98.69c-.6,0-12-.65-13.57-.65a60.75,60.75,0,0,0-24,5c-14.88,6.42-21.34,17.8-33.76,33.92a36.89,36.89,0,0,1-4.79,5.42,46.47,46.47,0,1,1-34.16-79.81c1,.14,9.26.59,14.2.59a60.16,60.16,0,0,0,51.47-29l0-.06c1.27-2.11,6.42-10.8,7-11.51a46.48,46.48,0,1,1,37.61,76.09Z"/></g></g></svg>